 http://img837.imageshack.us/img837/843/1qo4lpc4mck.jpg

Country.......: USA
Genre.........: Horror
Date release..: 15.03.2011 [World]
Director......: Kevin Clark, Manzie Jones
Writers.......: Manzie Jones, Kevin Clark
Duration......: 78 min.
More..........: http://www.imdb.com/title/tt1754334
Trailer.......:

Pilot :
Three college friends move into a small rental house in the middle of a cold and dark Alaskan winter. During a house warming party, a psychic medium calls forth a ghostly presence that increasingly becomes hostile toward the three. With very few options on the table, they must decide to confront the hostile presence, or die.

Cats :
Natasha Blasick   	 ...  	Vivian
Andrew Bassano Brewer 	... 	Psychic Medium
Manzie Jones 	... 	Jonzi
Jennifer Sommerfeld 	... 	Bridget
Jenny Sommerfeld 	... 	Bridget 

Data Technical :
!!! SAMPLE !!!
Audio.....: English
Subtitles.: None
Format                           : AVI
Format/Info                      : Audio Video Interleave
Format profile                   : OpenDML
File size                        : 696 MiB
Duration                         : 1h 17mn
Overall bit rate                 : 1 249 Kbps
Writing application              : AVI-Mux GUI 1.17.8.3, Feb 16 201019:42:50
Video
ID                               : 0
Format                           : MPEG-4 Visual
Format profile                   : Advanced Simple@L5
Format settings, BVOP            : No
Format settings, QPel            : No
Format settings, GMC             : No warppoints
Format settings, Matrix          : Custom
Codec ID                         : XVID
Codec ID/Hint                    : XviD
Duration                         : 1h 17mn
Bit rate                         : 1 135 Kbps
Width                            : 640 pixels
Height                           : 368 pixels
Display aspect ratio             : 16:9
Frame rate                       : 29.970 fps
Color space                      : YUV
Chroma subsampling               : 4:2:0
Bit depth                        : 8 bits
Scan type                        : Progressive
Bits/(Pixel*Frame)               : 0.161
Stream size                      : 633 MiB (91%)
Writing library                  : XviD 58
Audio
ID                               : 1
Format                           : MPEG Audio
Format version                   : Version 1
Format profile                   : Layer 3
Mode                             : Joint stereo
Mode extension                   : MS Stereo
Codec ID                         : 55
Codec ID/Hint                    : MP3
Duration                         : 1h 17mn
Bit rate mode                    : Variable
Bit rate                         : 104 Kbps
Channel(s)                       : 2 channels
Sampling rate                    : 48.0 KHz
Stream size                      : 57.8 MiB (8%)
Alignment                        : Aligned on interleaves
Interleave, duration             : 24 ms (0.72 video frame)
Interleave, preload duration     : 59 ms
Writing library                  : LAME3.98.2

Screen : 
http://img534.imageshack.us/img534/39/paranoidactivity22011s1.jpg 
http://img824.imageshack.us/img824/7173/paranoidactivity22011s2.jpg 
http://img853.imageshack.us/img853/3858/paranoidactivity22011s3.jpg 
http://img189.imageshack.us/img189/5388/paranoidactivity22011s4.jpg 
http://img62.imageshack.us/img62/6006/paranoidactivity22011s5.jpg